<?xml version="1.0" encoding="UTF-8" standalone="no"?>
<!-- Created with Inkscape (http://www.inkscape.org/) -->

<svg
   width="1000mm"
   height="500mm"
   viewBox="0 0 1000 500"
   version="1.1"
   id="svg51"
   inkscape:version="1.2.2 (b0a8486541, 2022-12-01)"
   sodipodi:docname="logo.svg"
   inkscape:export-filename="logo.jpg"
   inkscape:export-xdpi="96"
   inkscape:export-ydpi="96"
   xmlns:inkscape="http://www.inkscape.org/namespaces/inkscape"
   xmlns:sodipodi="http://sodipodi.sourceforge.net/DTD/sodipodi-0.dtd"
   xmlns="http://www.w3.org/2000/svg"
   xmlns:svg="http://www.w3.org/2000/svg">
  <sodipodi:namedview
     id="namedview53"
     pagecolor="#1e1e2e"
     bordercolor="#000000"
     borderopacity="0.25"
     inkscape:showpageshadow="2"
     inkscape:pageopacity="0"
     inkscape:pagecheckerboard="0"
     inkscape:deskcolor="#d1d1d1"
     inkscape:document-units="mm"
     showgrid="false"
     inkscape:zoom="0.19242424"
     inkscape:cx="1057.5591"
     inkscape:cy="1026.378"
     inkscape:window-width="1050"
     inkscape:window-height="1043"
     inkscape:window-x="0"
     inkscape:window-y="0"
     inkscape:window-maximized="1"
     inkscape:current-layer="layer1" />
  <defs
     id="defs48" />
  <g
     inkscape:label="Layer 1"
     inkscape:groupmode="layer"
     id="layer1">
    <path
       fill="currentColor"
       d="m 304.38512,301.0663 50.53715,-50.53715 -17.68784,-18.10929 -20.21487,20.21482 v -52.64263 h -25.26825 v 52.64263 l -20.21483,-20.21482 -17.68846,18.10929 z m -202.1485,84.22874 q -13.897531,0 -23.802467,-9.90557 Q 68.52863,365.48448 68.54583,351.6034 V 149.4549 q 0,-13.8976 9.904883,-23.80322 9.905526,-9.90495 23.785907,-9.88838 H 371.7684 q 13.8976,0 23.80259,9.90558 9.90558,9.90494 9.88838,23.78602 v 202.1485 q 0,13.89765 -9.90494,23.80322 -9.90558,9.90499 -23.78603,9.88842 z m 25.26889,-84.22874 h 25.26826 v -75.80604 h 16.84614 v 50.53715 h 25.26821 v -50.53715 h 16.84551 v 75.80604 h 25.26888 v -84.22875 q 0,-7.15959 -4.85155,-12.01115 -4.8516,-4.85155 -11.99395,-4.83246 h -75.80599 q -7.15956,0 -12.01115,4.85155 -4.85156,4.8516 -4.83247,11.99395 z"
       id="path105"
       style="fill:#fab387;fill-opacity:1;stroke-width:16.8457" />
    <path
       fill="currentColor"
       d="M 422.73616,313.02902 V 189.08453 h 32.61033 v 41.31511 h 43.4812 v -41.31511 h 32.61114 v 123.94449 h -32.61114 v -51.64366 h -43.4812 v 51.64366 z m 168.4887,0 v -92.95874 h -38.04582 v -30.98575 h 108.70271 v 30.98575 h -38.04576 v 92.95874 z m 92.39709,0 V 209.74167 q 0,-8.77878 6.26125,-14.72809 6.2613,-5.94933 15.47896,-5.92593 h 97.83266 q 9.23985,0 15.50103,5.94932 6.26132,5.94936 6.2367,14.70782 V 313.03215 H 792.3222 V 220.0734 h -21.74105 v 72.30159 h -32.61031 v -72.30158 h -21.74102 v 92.95874 z m 173.92411,0 V 189.08453 h 32.61035 v 92.95798 h 54.35141 v 30.98651 z"
       id="path4529"
       style="fill:#fab387;fill-opacity:1;stroke-width:21.192" />
  </g>
</svg>
